# xmcd
#
# Track frame offsets:
#	150
#	17188
#	28132
#	40953
#	56169
#	71604
#	89901
#	105922
#	119063
#	133038
#
# Disc length: 1926 seconds
#
# Revision: 0
# Processed by: cddbd v1.5.1PL0 Copyright (c) Steve Scherf et al.
# Submitted via: dBpowerAMP V4.0
#
DISCID=9407840a
DTITLE=Lou Ann Barton - Old Enough
DYEAR=1997
DGENRE=Blues
TTITLE0=I'm Old Enough
TTITLE1=Brand New Lover
TTITLE2=It's Raining
TTITLE3=It Ain't Right
TTITLE4=Finger Poppin' Time
TTITLE5=Stop These Teardrops
TTITLE6=The Sudden Stop
TTITLE7=The Doodle Song
TTITLE8=Maybe
TTITLE9=Every Night Of The Week
EXTD=
EXTT0=
EXTT1=
EXTT2=
EXTT3=
EXTT4=
EXTT5=
EXTT6=
EXTT7=
EXTT8=
EXTT9=
PLAYORDER=
